<mxfile host="app.diagrams.net" modified="2024-04-01T07:37:45.969Z" agent="Mozilla/5.0 (Macintosh; Intel Mac OS X 10_15_7) AppleWebKit/605.1.15 (KHTML, like Gecko) Version/16.4 Safari/605.1.15" version="24.2.1" etag="MxhO01CAwSdONfsKLUw6" type="github">
  <diagram name="Page-1" id="Wk0VNwOE5lAr2KbqE_mc">
    <mxGraphModel>
      <root>
        <mxCell id="0" />
        <mxCell id="1" parent="0" />
      </root>
    </mxGraphModel>
  </diagram>
</mxfile>
